<?xml version="1.0" encoding="utf-8"?>
<!-- Generator: Adobe Illustrator 19.0.0, SVG Export Plug-In . SVG Version: 6.00 Build 0)  -->
<svg version="1.1" id="Layer_1" xmlns="http://www.w3.org/2000/svg" xmlns:xlink="http://www.w3.org/1999/xlink" x="0px" y="0px"
	 viewBox="0 0 186.7 182.7" style="enable-background:new 0 0 186.7 182.7;" xml:space="preserve">
<style type="text/css">
	.st0{fill:#009640;}
	.st1{fill:#009ED4;}
	.st2{fill:#FFFFFF;}
	.st3{fill:#5F666A;}
</style>
<path id="XMLID_3_" class="st0" d="M106,85c44.6,17.1,19.3,60.3-41.3,53.8c-0.4,0-0.6-0.4-0.5-0.7l3.5-10.6c0.4-1.2,1.8-2.4,3-2.5
	c22.5-3.2,35.7-7.8,28.5-35.9c-0.1-0.4,0.1-0.9,0.5-1.1l5.3-2.9C105.4,85,105.7,84.9,106,85z"/>
<path id="XMLID_6_" class="st1" d="M61.5,138.6c-1.3-12.9-1.9-25.8-1.7-38.7c0.1-10.8,0.7-21.7,2.6-32.3c0.6-3.1,1.2-6.2,2.2-9.2
	c1.1-3.3,2.4-7.2,5.3-9.4c3.6-2.8,8.1-5,12.3-6.8c7.7-3.4,15.8-5.2,24.2-3.7c4.1,0.8,8.2,2.2,11.3,5c3.4,2.9,3.9,8.1,3.4,12.3
	c-0.6,5.5-2.7,10.7-5.7,15.3c-3.1,4.7-7.1,8.7-11.6,12c-4.6,3.3-9.6,5.4-14.9,7.3c-2.3,0.8-4.6,1.9-6.4,3.6
	c-4.4,4.2-7,10.1-9.5,15.6c-2.5,5.3-4.6,10.8-6.5,16.4c-0.7,2.1-1.4,4.2-2.1,6.3c-0.4,1.1-0.7,2.2-1,3.3c-0.2,0.8-0.4,2.6-1,3.1
	C62,138.9,61.8,138.8,61.5,138.6z"/>
<path id="XMLID_5_" class="st2" d="M82.3,55.3l-3.6,17.9c5-1.7,6.2-1.8,10.4-3.2c2.4-0.8,5.1-2,6.5-4.1c6.4-9.3,9-16.3-1.1-14.6
	c-0.4,0.1-4,1-4.4,1.1L82.3,55.3z"/>
<path id="XMLID_2_" class="st3" d="M160.4,46c1.4-0.9,1.7-2.8,0.8-4.2C146.8,21,118.3,8.5,94.6,8.5c-46.4,0-84,37.6-84,84
	s37.6,84,84,84c27.9,0,49.6-9.4,64.6-30c1-1.4,0.6-3.3-0.8-4.2l-13.5-8.8c-1.3-0.8-3-0.6-4,0.5c-11.7,13-28.7,21.1-47.6,20.7
	c-34.1-0.7-61.6-29.3-61-63.4C33,57.6,60.6,30.3,94.6,30.3c18.3,0,34.7,7.9,46.1,20.4c1,1.1,2,2.2,2.9,3.4c1,1.2,2.8,1.5,4.1,0.6
	L160.4,46z"/>
</svg>
